<svg xmlns="http://www.w3.org/2000/svg" width="210" height="337" viewBox="0 0 210 337">
  <g fill="none" transform="matrix(-1 0 0 1 210 0)">
    <path fill="#B2CB17" d="M201.683913,215.580744 C197.814971,207.478038 192.766888,199.986114 186.702173,193.346154 C175.235597,180.804619 168.633857,164.670709 168.949658,147.725619 C168.964696,146.944343 168.972215,146.159329 168.972215,145.370577 C168.972215,96.1576674 140.478714,67 105,67 C69.5212861,67 40.486412,96.1576674 40.486412,145.370577 C40.486412,146.413524 40.4976906,147.452733 40.5240073,148.484466 C40.9413155,165.276292 34.2343084,181.24946 22.940671,193.742399 C8.5867736,209.618375 0,229.744642 0,251.654012 C0,268.76732 5.25582728,283.94426 14.3839736,296.59794 C32.6139497,321.860442 66.3595188,337 105,337 C162.990798,337 210,302.937863 210,251.650274 C210,238.843329 206.988614,226.679349 201.683913,215.580744 L201.683913,215.580744 Z"/>
    <path fill="#603813" d="M92.1019876,22.8489405 C81.1220021,7.90362728 64.8230575,3.51147404 46.5807194,0 C41.5361659,5.32155085 40.1904505,11.3776256 44.9230084,18.5092533 C60.9362704,21.8333488 75.6150939,23.8270565 86.4559971,36.0403905 C92.2574717,42.6232269 97.0172612,50.0502224 100.570973,58.0648654 C102.331596,62.014476 103.813726,66.0817177 105.006572,70.236976 C106.247036,74.561673 105.743332,79.8832238 110.742778,81 C111.926857,72.0395577 108.77683,60.6619321 106.310938,52.1437032 C103.269922,41.6767373 98.571195,31.6519848 92.1019876,22.8489405 L92.1019876,22.8489405 Z"/>
    <path fill="#1BB799" d="M114.328953,28.2648987 C129.267903,10.4726455 154.071706,1.68727461 176.780253,6.14753981 C177.574362,10.8743697 176.112902,15.7100781 174.054929,20.0351837 C165.666449,37.6322065 146.361761,49.334771 126.993693,48.5538491 C123.008233,48.3924085 118.90347,47.7691728 115.104421,48.9931177 C111.305372,50.2208169 107.946252,54.1291806 109.005064,58 C104.762358,47.9869299 107.588343,36.2956287 114.328953,28.2648987 L114.328953,28.2648987 Z"/>
  </g>
</svg>
